<svg version="1.2" xmlns="http://www.w3.org/2000/svg" viewBox="0 0 624 624" width="624" height="624">
	<title>Logo_MHP</title>
	<defs>
		<linearGradient id="g1" x1="-161" y1="660.9" x2="196" y2="22.3" gradientUnits="userSpaceOnUse">
			<stop offset="0" stop-color="#b1b7c2"/>
			<stop offset="1" stop-color="#ffffff"/>
		</linearGradient>
		<clipPath clipPathUnits="userSpaceOnUse" id="cp1">
			<path d="m233.46 193.63v321.74l280.54-160.87z"/>
		</clipPath>
		<linearGradient id="g2" x1="1085.1" y1="-32.1" x2="-4.3" y2="1100" gradientUnits="userSpaceOnUse">
			<stop offset="0" stop-color="#ffce4f"/>
			<stop offset=".275" stop-color="#ff001c"/>
			<stop offset=".413" stop-color="#ff009d"/>
			<stop offset=".737" stop-color="#00aadd"/>
			<stop offset="1" stop-color="#ffd400"/>
		</linearGradient>
		<linearGradient id="g3" x1="494.4" y1="379.3" x2="339.2" y2="559.9" gradientUnits="userSpaceOnUse">
			<stop offset="0" stop-color="#ffffff"/>
			<stop offset="1" stop-color="#bebdbd"/>
		</linearGradient>
		<linearGradient id="g4" x1="-203" y1="569.9" x2="154" y2="-68.7" gradientUnits="userSpaceOnUse">
			<stop offset="0" stop-color="#b1b7c2"/>
			<stop offset="1" stop-color="#ffffff"/>
		</linearGradient>
		<linearGradient id="g5" x1="1043.1" y1="-123.1" x2="-46.3" y2="1009" gradientUnits="userSpaceOnUse">
			<stop offset="0" stop-color="#ffce4f"/>
			<stop offset=".275" stop-color="#ff001c"/>
			<stop offset=".413" stop-color="#ff009d"/>
			<stop offset=".737" stop-color="#00aadd"/>
			<stop offset="1" stop-color="#ffd400"/>
		</linearGradient>
		<clipPath clipPathUnits="userSpaceOnUse" id="cp2">
			<path d="m191.46 102.63v321.74l280.54-160.87z"/>
		</clipPath>
		<linearGradient id="g6" x1="1043.1" y1="-123.1" x2="-46.3" y2="1009" gradientUnits="userSpaceOnUse">
			<stop offset="0" stop-color="#ffce4f"/>
			<stop offset=".275" stop-color="#ff001c"/>
			<stop offset=".413" stop-color="#ff009d"/>
			<stop offset=".737" stop-color="#00aadd"/>
			<stop offset="1" stop-color="#ffd400"/>
		</linearGradient>
		<clipPath clipPathUnits="userSpaceOnUse" id="cp3">
			<path d="m244.45 183.85v159.3l138.9-79.65z"/>
		</clipPath>
		<linearGradient id="g7" x1="452.4" y1="288.3" x2="297.2" y2="468.9" gradientUnits="userSpaceOnUse">
			<stop offset="0" stop-color="#ffffff"/>
			<stop offset="1" stop-color="#bebdbd"/>
		</linearGradient>
	</defs>
	<style>
		.s0 { opacity: .1;fill: url(#g1) } 
		.s1 { fill: url(#g2) } 
		.s2 { opacity: .4;fill: #006a88 } 
		.s3 { fill: url(#g3) } 
		.s4 { opacity: .1;fill: url(#g4) } 
		.s5 { fill: url(#g5) } 
		.s6 { fill: url(#g6) } 
		.s7 { fill: url(#g7) } 
	</style>
	<g id="duplicata">
		<path id="&lt;Path&gt;" class="s0" d="m144.4 193.6v321.8l280.6-160.9z"/>
		<g clip-path="url(#cp1)">
			<path id="&lt;Path&gt;" class="s1" d="m233.5 193.6v321.8l280.5-160.9z"/>
			<rect width="624" height="624" id="Preencher com Cor Sólida 2 copy 3" style="fill: #b81932"/>
		</g>
		<path id="&lt;Path&gt;" class="s2" d="m305.9 473.5l1-0.5-0.3-0.2 1-0.5-0.3-0.2 1-0.5-0.3-0.2 1-0.5-0.3-0.2 1-0.5-0.3-0.2 1-0.5-0.3-0.2 1-0.5-0.3-0.2 1-0.5-0.3-0.2 1-0.5-0.3-0.2 1-0.5-0.3-0.2 1-0.5-0.3-0.2 1-0.5-0.3-0.2 1-0.5-0.3-0.2 1-0.5-0.3-0.2 1-0.5-0.3-0.2 1-0.6-0.3-0.1 1-0.5-0.3-0.2 1-0.6-0.3-0.1 1-0.6-0.2-0.1 0.9-0.6-0.3-0.1 1-0.6-0.3-0.1 1-0.6-0.2-0.1 0.9-0.6-0.2-0.1 0.9-0.6-0.2-0.1 0.9-0.6-0.2-0.1 0.9-0.6-0.2-0.1 0.9-0.6-0.2-0.1 0.9-0.6-0.2-0.1 0.9-0.6-0.2-0.1 0.9-0.6-0.2-0.1 0.9-0.6-0.2-0.1 0.9-0.6-0.2-0.1 0.9-0.6-0.2-0.1 0.9-0.6-0.2-0.1 0.9-0.6-0.2-0.1 0.9-0.6-0.2-0.1 0.9-0.6-0.2-0.1 0.9-0.6-0.2-0.1 0.9-0.6-0.2-0.1 0.9-0.6-0.2-0.1 0.9-0.6-0.2-0.1 0.9-0.6-0.2-0.1 0.9-0.6-0.2-0.1 0.9-0.6-0.2-0.1 0.9-0.6-0.2-0.1 0.9-0.6-0.2-0.1 0.9-0.6-0.2-0.1 0.9-0.6-0.2-0.1 0.9-0.6-0.2-0.1 0.9-0.6-0.2-0.1 0.9-0.6-0.2-0.1 0.9-0.6-0.2-0.1 0.9-0.6-0.2-0.1 0.9-0.6-0.2-0.1 0.9-0.6-0.2-0.1 0.9-0.6-0.2-0.1 0.9-0.6-0.2-0.1 0.9-0.6-0.2-0.1 0.9-0.6-0.2-0.1 0.9-0.6-0.2-0.1 0.9-0.6-0.2-0.1 0.9-0.6-0.2-0.1 1-0.6-0.3-0.1 1-0.6-0.3-0.1 1-0.6-0.3-0.1 1-0.6-0.3-0.1 1-0.6-0.3-0.1 1-0.6-0.3-0.2 1-0.5-0.3-0.1 1-0.6-0.3-0.2 1-0.5-0.3-0.2 1-0.5-0.3-0.2 1-0.5-0.3-0.2 1-0.5-0.3-0.2 1-0.5-0.3-0.2 1-0.5-0.3-0.2 1-0.5-0.3-0.2 1-0.5-0.3-0.2 1-0.5-0.3-0.2 1-0.5-0.3-0.2 1-0.5-0.3-0.2 1-0.5-0.3-0.2 1-0.5-0.3-0.2 1-0.5-0.3-0.2 1-0.5-0.3-0.2 1-0.5-0.3-0.2 1-0.5-0.3-0.2 1-0.5-0.3-0.2 1-0.5-0.3-0.2 1-0.5-0.3-0.2 1-0.5-0.3-0.2 1-0.5-0.3-0.2 1-0.5-0.3-0.2 1-0.5-0.3-0.2 1-0.5-0.3-0.2 1-0.5-0.3-0.2 1-0.5-0.3-0.2 1-0.5-0.3-0.2 1-0.5-0.3-0.2 1-0.5-0.3-0.2 1-0.5-0.3-0.2 1-0.5-0.3-0.2 1-0.5-0.3-0.2 1-0.5-0.3-0.2 1-0.5-0.3-0.2 1-0.5-0.3-0.2 1-0.5-0.3-0.2 1-0.5-0.3-0.2 1-0.5-0.3-0.2 1-0.5-0.3-0.2 1-0.5-0.3-0.2 1-0.5-0.3-0.2 1-0.5-0.3-0.2 1-0.5-0.3-0.2 1-0.5-0.3-0.2 1-0.5-0.3-0.2 1-0.5-0.3-0.2 1-0.5-0.3-0.2 1-0.5-0.3-0.2 1-0.5-0.3-0.2 1-0.6-0.3-0.1 1-0.6-0.3-0.1 1-0.6-0.3-0.1 1-0.6-0.3-0.1 1-0.6-0.3-0.1 1-0.6-0.2-0.1 0.9-0.6-0.3-0.1 1-0.6-0.3-0.1 1-0.6-0.2-0.1 0.9-0.6-0.2-0.1 0.9-0.6-0.2-0.1 0.9-0.6-0.2-0.1 0.9-0.6-0.2-0.1 0.9-0.6-0.2-0.1 0.9-0.6-0.2-0.1 0.9-0.6-0.2-0.1 0.9-0.6-0.2-0.1 0.9-0.6-0.2-0.1 0.9-0.6-0.2-0.1 0.9-0.6-0.2-0.1 0.9-0.6-0.2-0.1 0.9-0.6-0.2-0.1 0.9-0.6-0.2-0.1 0.9-0.6-0.2-0.1 0.9-0.6-0.2-0.1 0.9-0.6-0.2-0.1 0.9-0.6-0.2-0.1 0.9-0.6-0.2-0.1 0.9-0.6-0.2-0.1 0.9-0.6-0.2-0.1 0.9-0.6-0.2-0.1 0.9-0.6-0.2-0.1 0.9-0.6-0.2-0.1 0.9-0.6-0.2-0.1 0.9-0.6-0.2-0.1 0.9-0.6-0.2-0.1 0.9-0.6-0.2-0.1 0.9-0.6-0.2-0.1 0.9-0.6-0.2-0.1 0.9-0.6-0.2-0.1 0.9-0.6-0.2-0.1 0.9-0.6-0.2-0.1 0.9-0.6-0.2-0.1 0.9-0.6-0.2-0.1 0.9-0.6-0.2-0.1 0.9-0.6-0.2-0.1 0.9-0.6-0.2-0.1 0.9-0.6-0.2-0.1 1-0.6-0.3-0.1 1-0.6-139-79.6v1.1l-0.7-0.4v1.1l-0.7-0.4v1.1l-0.7-0.4v1.1l-0.7-0.4v1.1l-0.7-0.4v1.1l-0.7-0.4v1.1l-0.7-0.4v1.1l-0.7-0.4v1.1l-0.7-0.4v1.1l-0.7-0.4v1.1l-0.7-0.4v1.1l-0.7-0.4v1.1l-0.7-0.4v1.1l-0.7-0.4v1.1l-0.7-0.4v1.1l-0.7-0.4v1.1l-0.7-0.4v1.1l-0.7-0.4v1.1l-0.7-0.4v1.1l-0.7-0.4v1.1l-0.7-0.4v1.1l-0.7-0.4v1.1l-0.7-0.4v1.1l-0.7-0.4v1.1l-0.7-0.4v1.1l-0.7-0.4v1.1l-0.7-0.4v1.1l-0.7-0.4v1.1l-0.7-0.4v1.1l-0.7-0.4v1.1l-0.7-0.4v1.1l-0.7-0.4v1.1l-0.7-0.4v1.1l-0.7-0.4v1.1l-0.7-0.4v1.1l-0.7-0.4v1.1l-0.7-0.4v1.1l-0.7-0.4v1.1l-0.7-0.4v1.1l-0.7-0.4v1.1l-0.7-0.4v1.1l-0.7-0.4v1.1l-0.7-0.4v1.1l-0.7-0.4v1.1l-0.7-0.4v1.1l-0.7-0.4v1.1l-0.7-0.4v1.1l-0.7-0.4v1.1l-0.7-0.4v1.1l-0.7-0.4v1.1l-0.7-0.4v1.1l-0.7-0.4v1.1l-0.7-0.4v1.1l-0.7-0.4v1.1l-0.7-0.4v1.1l-0.7-0.4v1.1l-0.7-0.4v1.1l-0.7-0.4v1.1l-0.7-0.4v1.1l-0.7-0.4v1.1l-0.7-0.4v1.1l-0.7-0.4v1.1l-0.7-0.4v1.1l-0.7-0.4v1.1l-0.7-0.4v1.1l-0.7-0.4v1.1l-0.7-0.4v1.1l-0.7-0.4v1.1l-0.7-0.4v1.1l-0.7-0.4v1.1l-0.7-0.4v1.1l-0.7-0.4v1.1l-0.7-0.4v1.1l-0.7-0.4v1.1l-0.7-0.4v1.1l-0.4-0.2v187.1l72.7-41.7z"/>
		<path id="&lt;Path&gt;" class="s3" d="m286.4 274.9v159.3l139-79.7z"/>
	</g>
	<g id="&lt;Group&gt;">
		<path id="&lt;Path&gt;" class="s4" d="m102.4 102.6v321.8l280.6-160.9z"/>
		<path id="&lt;Path&gt;" class="s5" d="m191.5 102.6v321.8l280.5-160.9z"/>
		<g clip-path="url(#cp2)">
			<path id="&lt;Path&gt; copy" class="s6" d="m191.5 102.6v321.8l280.5-160.9z"/>
			<rect width="624" height="624" id="Preencher com Cor Sólida 2 copy" style="fill: #b81932"/>
		</g>
		<path id="&lt;Path&gt;" class="s2" d="m263.9 382.5l1-0.5-0.3-0.2 1-0.5-0.3-0.2 1-0.5-0.3-0.2 1-0.5-0.3-0.2 1-0.5-0.3-0.2 1-0.5-0.3-0.2 1-0.5-0.3-0.2 1-0.5-0.3-0.2 1-0.5-0.3-0.2 1-0.5-0.3-0.2 1-0.5-0.3-0.2 1-0.5-0.3-0.2 1-0.5-0.3-0.2 1-0.5-0.3-0.2 1-0.5-0.3-0.2 1-0.6-0.3-0.1 1-0.5-0.3-0.2 1-0.6-0.3-0.1 1-0.6-0.2-0.1 0.9-0.6-0.3-0.1 1-0.6-0.3-0.1 1-0.6-0.2-0.1 0.9-0.6-0.2-0.1 0.9-0.6-0.2-0.1 0.9-0.6-0.2-0.1 0.9-0.6-0.2-0.1 0.9-0.6-0.2-0.1 0.9-0.6-0.2-0.1 0.9-0.6-0.2-0.1 0.9-0.6-0.2-0.1 0.9-0.6-0.2-0.1 0.9-0.6-0.2-0.1 0.9-0.6-0.2-0.1 0.9-0.6-0.2-0.1 0.9-0.6-0.2-0.1 0.9-0.6-0.2-0.1 0.9-0.6-0.2-0.1 0.9-0.6-0.2-0.1 0.9-0.6-0.2-0.1 0.9-0.6-0.2-0.1 0.9-0.6-0.2-0.1 0.9-0.6-0.2-0.1 0.9-0.6-0.2-0.1 0.9-0.6-0.2-0.1 0.9-0.6-0.2-0.1 0.9-0.6-0.2-0.1 0.9-0.6-0.2-0.1 0.9-0.6-0.2-0.1 0.9-0.6-0.2-0.1 0.9-0.6-0.2-0.1 0.9-0.6-0.2-0.1 0.9-0.6-0.2-0.1 0.9-0.6-0.2-0.1 0.9-0.6-0.2-0.1 0.9-0.6-0.2-0.1 0.9-0.6-0.2-0.1 0.9-0.6-0.2-0.1 0.9-0.6-0.2-0.1 0.9-0.6-0.2-0.1 0.9-0.6-0.2-0.1 0.9-0.6-0.2-0.1 0.9-0.6-0.2-0.1 1-0.6-0.3-0.1 1-0.6-0.3-0.1 1-0.6-0.3-0.1 1-0.6-0.3-0.1 1-0.6-0.3-0.1 1-0.6-0.3-0.2 1-0.5-0.3-0.1 1-0.6-0.3-0.2 1-0.5-0.3-0.2 1-0.5-0.3-0.2 1-0.5-0.3-0.2 1-0.5-0.3-0.2 1-0.5-0.3-0.2 1-0.5-0.3-0.2 1-0.5-0.3-0.2 1-0.5-0.3-0.2 1-0.5-0.3-0.2 1-0.5-0.3-0.2 1-0.5-0.3-0.2 1-0.5-0.3-0.2 1-0.5-0.3-0.2 1-0.5-0.3-0.2 1-0.5-0.3-0.2 1-0.5-0.3-0.2 1-0.5-0.3-0.2 1-0.5-0.3-0.2 1-0.5-0.3-0.2 1-0.5-0.3-0.2 1-0.5-0.3-0.2 1-0.5-0.3-0.2 1-0.5-0.3-0.2 1-0.5-0.3-0.2 1-0.5-0.3-0.2 1-0.5-0.3-0.2 1-0.5-0.3-0.2 1-0.5-0.3-0.2 1-0.5-0.3-0.2 1-0.5-0.3-0.2 1-0.5-0.3-0.2 1-0.5-0.3-0.2 1-0.5-0.3-0.2 1-0.5-0.3-0.2 1-0.5-0.3-0.2 1-0.5-0.3-0.2 1-0.5-0.3-0.2 1-0.5-0.3-0.2 1-0.5-0.3-0.2 1-0.5-0.3-0.2 1-0.5-0.3-0.2 1-0.5-0.3-0.2 1-0.5-0.3-0.2 1-0.5-0.3-0.2 1-0.5-0.3-0.2 1-0.5-0.3-0.2 1-0.5-0.3-0.2 1-0.5-0.3-0.2 1-0.5-0.3-0.2 1-0.5-0.3-0.2 1-0.6-0.3-0.1 1-0.6-0.3-0.1 1-0.6-0.3-0.1 1-0.6-0.3-0.1 1-0.6-0.3-0.1 1-0.6-0.2-0.1 0.9-0.6-0.3-0.1 1-0.6-0.3-0.1 1-0.6-0.2-0.1 0.9-0.6-0.2-0.1 0.9-0.6-0.2-0.1 0.9-0.6-0.2-0.1 0.9-0.6-0.2-0.1 0.9-0.6-0.2-0.1 0.9-0.6-0.2-0.1 0.9-0.6-0.2-0.1 0.9-0.6-0.2-0.1 0.9-0.6-0.2-0.1 0.9-0.6-0.2-0.1 0.9-0.6-0.2-0.1 0.9-0.6-0.2-0.1 0.9-0.6-0.2-0.1 0.9-0.6-0.2-0.1 0.9-0.6-0.2-0.1 0.9-0.6-0.2-0.1 0.9-0.6-0.2-0.1 0.9-0.6-0.2-0.1 0.9-0.6-0.2-0.1 0.9-0.6-0.2-0.1 0.9-0.6-0.2-0.1 0.9-0.6-0.2-0.1 0.9-0.6-0.2-0.1 0.9-0.6-0.2-0.1 0.9-0.6-0.2-0.1 0.9-0.6-0.2-0.1 0.9-0.6-0.2-0.1 0.9-0.6-0.2-0.1 0.9-0.6-0.2-0.1 0.9-0.6-0.2-0.1 0.9-0.6-0.2-0.1 0.9-0.6-0.2-0.1 0.9-0.6-0.2-0.1 0.9-0.6-0.2-0.1 0.9-0.6-0.2-0.1 0.9-0.6-0.2-0.1 0.9-0.6-0.2-0.1 0.9-0.6-0.2-0.1 0.9-0.6-0.2-0.1 1-0.6-0.3-0.1 1-0.6-139-79.6v1.1l-0.7-0.4v1.1l-0.7-0.4v1.1l-0.7-0.4v1.1l-0.7-0.4v1.1l-0.7-0.4v1.1l-0.7-0.4v1.1l-0.7-0.4v1.1l-0.7-0.4v1.1l-0.7-0.4v1.1l-0.7-0.4v1.1l-0.7-0.4v1.1l-0.7-0.4v1.1l-0.7-0.4v1.1l-0.7-0.4v1.1l-0.7-0.4v1.1l-0.7-0.4v1.1l-0.7-0.4v1.1l-0.7-0.4v1.1l-0.7-0.4v1.1l-0.7-0.4v1.1l-0.7-0.4v1.1l-0.7-0.4v1.1l-0.7-0.4v1.1l-0.7-0.4v1.1l-0.7-0.4v1.1l-0.7-0.4v1.1l-0.7-0.4v1.1l-0.7-0.4v1.1l-0.7-0.4v1.1l-0.7-0.4v1.1l-0.7-0.4v1.1l-0.7-0.4v1.1l-0.7-0.4v1.1l-0.7-0.4v1.1l-0.7-0.4v1.1l-0.7-0.4v1.1l-0.7-0.4v1.1l-0.7-0.4v1.1l-0.7-0.4v1.1l-0.7-0.4v1.1l-0.7-0.4v1.1l-0.7-0.4v1.1l-0.7-0.4v1.1l-0.7-0.4v1.1l-0.7-0.4v1.1l-0.7-0.4v1.1l-0.7-0.4v1.1l-0.7-0.4v1.1l-0.7-0.4v1.1l-0.7-0.4v1.1l-0.7-0.4v1.1l-0.7-0.4v1.1l-0.7-0.4v1.1l-0.7-0.4v1.1l-0.7-0.4v1.1l-0.7-0.4v1.1l-0.7-0.4v1.1l-0.7-0.4v1.1l-0.7-0.4v1.1l-0.7-0.4v1.1l-0.7-0.4v1.1l-0.7-0.4v1.1l-0.7-0.4v1.1l-0.7-0.4v1.1l-0.7-0.4v1.1l-0.7-0.4v1.1l-0.7-0.4v1.1l-0.7-0.4v1.1l-0.7-0.4v1.1l-0.7-0.4v1.1l-0.7-0.4v1.1l-0.7-0.4v1.1l-0.7-0.4v1.1l-0.7-0.4v1.1l-0.7-0.4v1.1l-0.4-0.2v187.1l72.7-41.7z"/>
		<g clip-path="url(#cp3)">
			<path id="&lt;Path&gt;" class="s7" d="m244.4 183.9v159.3l139-79.7z"/>
		</g>
	</g>
</svg>